HIERARCHY
ROOT joint_Root
{
	OFFSET 0.0 0.0 0.0
	CHANNELS 6 Xposition Yposition Zposition Zrotation Xrotation Yrotation 
	JOINT Hips
	{
		OFFSET 4.5925 91.4895 -427.239
		CHANNELS 6 Xposition Yposition Zposition Zrotation Xrotation Yrotation 
		JOINT Spine
		{
			OFFSET 15.7357 0.0 0.0
			CHANNELS 6 Xposition Yposition Zposition Zrotation Xrotation Yrotation 
			JOINT Chest
			{
				OFFSET 8.98455 -0.406207 0.0
				CHANNELS 6 Xposition Yposition Zposition Zrotation Xrotation Yrotation 
				JOINT Neck
				{
					OFFSET 16.3773 0.0 0.0
					CHANNELS 6 Xposition Yposition Zposition Zrotation Xrotation Yrotation 
					JOINT Head
					{
						OFFSET 6.45672 0.0 0.0
						CHANNELS 6 Xposition Yposition Zposition Zrotation Xrotation Yrotation 
						End Site
						{
							OFFSET 0.0 0.0 0.0
						}
					}
				}
				JOINT Shoulder_L
				{
					OFFSET 12.9942 -0.242716 4.98039
					CHANNELS 6 Xposition Yposition Zposition Zrotation Xrotation Yrotation 
					JOINT UpperArm_L
					{
						OFFSET 5.34809 0.0 0.0
						CHANNELS 6 Xposition Yposition Zposition Zrotation Xrotation Yrotation 
						JOINT LowerArm_L
						{
							OFFSET 24.3286 1.87007e-05 0.0
							CHANNELS 6 Xposition Yposition Zposition Zrotation Xrotation Yrotation 
							JOINT Hand_L
							{
								OFFSET 22.2916 0.0 0.0
								CHANNELS 6 Xposition Yposition Zposition Zrotation Xrotation Yrotation 
								End Site
								{
									OFFSET 0.0 0.0 0.0
								}
							}
						}
					}
				}
				JOINT Shoulder_R
				{
					OFFSET 12.9945 -0.242716 -4.98039
					CHANNELS 6 Xposition Yposition Zposition Zrotation Xrotation Yrotation 
					JOINT UpperArm_R
					{
						OFFSET -5.34813 0.0 0.0
						CHANNELS 6 Xposition Yposition Zposition Zrotation Xrotation Yrotation 
						JOINT LowerArm_R
						{
							OFFSET -24.3289 0.000322201 0.0
							CHANNELS 6 Xposition Yposition Zposition Zrotation Xrotation Yrotation 
							JOINT Hand_R
							{
								OFFSET -22.2915 -0.000108084 0.0
								CHANNELS 6 Xposition Yposition Zposition Zrotation Xrotation Yrotation 
								End Site
								{
									OFFSET 0.0 0.0 0.0
								}
							}
						}
					}
				}
			}
		}
		JOINT UpperLeg_L
		{
			OFFSET -2.19248 -6.46944 0.0
			CHANNELS 6 Xposition Yposition Zposition Zrotation Xrotation Yrotation 
			JOINT LowerLeg_L
			{
				OFFSET 39.0811 0.0 -1.23785e-05
				CHANNELS 6 Xposition Yposition Zposition Zrotation Xrotation Yrotation 
				JOINT Foot_L
				{
					OFFSET 40.9854 0.0 -1.26872e-05
					CHANNELS 6 Xposition Yposition Zposition Zrotation Xrotation Yrotation 
					JOINT Toes_L
					{
						OFFSET 11.7543 0.0 0.0
						CHANNELS 6 Xposition Yposition Zposition Zrotation Xrotation Yrotation 
						End Site
						{
							OFFSET 0.0 0.0 0.0
						}
					}
				}
			}
		}
		JOINT UpperLeg_R
		{
			OFFSET -2.19251 6.46944 0.0
			CHANNELS 6 Xposition Yposition Zposition Zrotation Xrotation Yrotation 
			JOINT LowerLeg_R
			{
				OFFSET -39.0811 -0.00228153 -0.0401928
				CHANNELS 6 Xposition Yposition Zposition Zrotation Xrotation Yrotation 
				JOINT Foot_R
				{
					OFFSET -40.9854 0.0 0.0
					CHANNELS 6 Xposition Yposition Zposition Zrotation Xrotation Yrotation 
					JOINT Toes_R
					{
						OFFSET -11.7543 0.0 0.0
						CHANNELS 6 Xposition Yposition Zposition Zrotation Xrotation Yrotation 
						End Site
						{
							OFFSET 0.0 0.0 0.0
						}
					}
				}
			}
		}
	}
}
MOTION
Frames:	9
Frame Time:	0.0333333
0.000000 0.000000 0.000000 0.000000 0.000000 -0.000000 -1.764750 89.956100 -3.193340 88.943600 -2.028620 12.662100 15.735700 0.000005 -0.000001 88.529600 76.583600 -88.602900 8.984550 -0.406207 -0.000000 19.058500 -0.681671 -0.032608 16.377300 -0.000001 -0.000001 1.955790 -2.631490 1.365960 6.456720 -0.000001 -0.000000 -5.192120 -1.192000 0.143001 12.994200 -0.242716 4.980390 -91.174200 6.340870 -79.486800 5.348090 -0.000007 -0.000001 -49.881700 41.022900 -34.611800 24.328600 0.000019 0.000005 6.206420 17.002100 -20.400300 22.291600 -0.000001 0.000005 8.872460 5.235250 1.819350 12.994500 -0.242716 -4.980390 89.477000 10.952300 -87.249500 -5.348130 -0.000001 -0.000004 -55.518600 33.958000 -26.097600 -24.328900 0.000322 -0.000009 2.619010 6.043980 -23.490300 -22.291500 -0.000108 -0.000004 17.994000 5.388260 -2.559800 -2.192480 -6.469440 -0.000000 -172.664000 -12.297100 -2.372230 39.081100 -0.000007 -0.000012 -0.255401 0.351263 36.021100 40.985400 -0.000006 -0.000013 -0.430614 5.501270 -70.473400 11.754300 -0.000000 0.000003 -0.000129 -0.001282 -16.626500 -2.192510 6.469440 -0.000001 175.201000 20.401300 179.423000 -39.081100 -0.002282 -0.040193 -0.150181 0.217416 35.217900 -40.985400 0.000008 0.000006 6.056470 12.071700 -72.135200 -11.754300 -0.000006 -0.000006 -0.002050 -0.029335 -17.765900
0.000000 0.000000 0.000000 0.000000 0.000000 -0.000000 -1.770900 89.957500 -3.212460 88.941700 -2.040530 12.648000 15.735700 0.000005 -0.000001 88.476600 76.567700 -88.553700 8.984550 -0.406207 -0.000000 19.089600 -0.707162 -0.035837 16.377300 -0.000001 -0.000001 1.992800 -2.598040 1.308680 6.456720 -0.000001 -0.000000 -5.209940 -1.165250 0.139653 12.994200 -0.242716 4.980390 -91.170600 6.318180 -79.481000 5.348090 -0.000007 -0.000001 -49.888800 41.008200 -34.644600 24.328600 0.000019 0.000005 6.215190 17.017400 -20.410600 22.291600 -0.000001 0.000005 8.803320 5.236160 1.795690 12.994500 -0.242716 -4.980390 89.463600 10.999700 -87.190700 -5.348130 -0.000001 -0.000004 -55.664900 33.102300 -25.843800 -24.328900 0.000322 -0.000009 2.861140 6.183410 -24.899300 -22.291500 -0.000108 -0.000004 18.261900 5.392580 -2.697420 -2.192480 -6.469440 -0.000000 -172.668000 -12.299000 -2.401910 39.081100 -0.000007 -0.000012 -0.254786 0.350418 36.021100 40.985400 -0.000006 -0.000013 -0.442016 5.467270 -70.456600 11.754300 -0.000000 0.000003 -0.000120 -0.001203 -16.623500 -2.192510 6.469440 -0.000001 175.223000 20.409900 179.388000 -39.081100 -0.002282 -0.040193 -0.148148 0.214513 35.220800 -40.985400 0.000008 0.000006 6.081720 12.057000 -72.125200 -11.754300 -0.000006 -0.000006 -0.002197 -0.031154 -17.839900
0.000000 0.000000 0.000000 0.000000 0.000000 -0.000000 -1.777500 89.966800 -3.238110 88.918600 -2.076960 12.625300 15.735700 0.000005 -0.000001 88.443500 76.557400 -88.513700 8.984550 -0.406207 -0.000000 19.109800 -0.722187 -0.019186 16.377300 -0.000001 -0.000001 2.025840 -2.575570 1.279370 6.456720 -0.000001 -0.000000 -5.215180 -1.062690 0.114211 12.994200 -0.242716 4.980390 -91.181200 6.354040 -79.446300 5.348090 -0.000007 -0.000001 -49.835700 41.009000 -34.641700 24.328600 0.000019 0.000005 6.225740 16.969200 -20.494400 22.291600 -0.000001 0.000005 8.735830 5.234500 1.838990 12.994500 -0.242716 -4.980390 89.440500 11.051500 -87.083700 -5.348130 -0.000001 -0.000004 -55.621100 32.259300 -25.693100 -24.328900 0.000322 -0.000009 2.986560 5.941710 -26.756300 -22.291500 -0.000108 -0.000004 18.721600 5.394890 -2.772020 -2.192480 -6.469440 -0.000000 -172.640000 -12.314800 -2.435640 39.081100 -0.000007 -0.000012 -0.256572 0.353200 35.995900 40.985400 -0.000006 -0.000013 -0.442604 5.486730 -70.417700 11.754300 -0.000000 0.000003 -0.000138 -0.001352 -16.629100 -2.192510 6.469440 -0.000001 175.287000 20.401400 179.348000 -39.081100 -0.002282 -0.040193 -0.140396 0.203720 35.196000 -40.985400 0.000008 0.000006 6.243400 12.046000 -72.127900 -11.754300 -0.000006 -0.000006 -0.002097 -0.029923 -17.789900
0.000000 0.000000 0.000000 0.000000 0.000000 -0.000000 -1.763710 89.966900 -3.253870 88.937400 -2.124600 12.605500 15.735700 0.000005 -0.000001 88.353800 76.550900 -88.436000 8.984550 -0.406207 -0.000000 19.121700 -0.764919 -0.035898 16.377300 -0.000001 -0.000001 2.071800 -2.537870 1.288650 6.456720 -0.000001 -0.000000 -5.209290 -0.984976 0.069786 12.994200 -0.242716 4.980390 -91.185100 6.356540 -79.416500 5.348090 -0.000007 -0.000001 -49.783400 41.055500 -34.619000 24.328600 0.000019 0.000005 6.256240 17.023000 -20.529200 22.291600 -0.000001 0.000005 8.774170 5.234470 1.839600 12.994500 -0.242716 -4.980390 89.416600 11.073400 -86.965200 -5.348130 -0.000001 -0.000004 -55.456000 31.402000 -25.632200 -24.328900 0.000322 -0.000009 3.202540 5.777590 -29.073600 -22.291500 -0.000108 -0.000004 19.022400 5.397040 -2.841430 -2.192480 -6.469440 -0.000000 -172.666000 -12.375000 -2.454150 39.081100 -0.000007 -0.000012 -0.254068 0.349799 35.992300 40.985400 -0.000006 -0.000013 -0.435265 5.468210 -70.411600 11.754300 -0.000000 0.000003 -0.000128 -0.001274 -16.626200 -2.192510 6.469440 -0.000001 175.259000 20.391600 179.315000 -39.081100 -0.002282 -0.040193 -0.146053 0.211763 35.193100 -40.985400 0.000008 0.000006 6.114310 12.102300 -72.082900 -11.754300 -0.000006 -0.000006 -0.002155 -0.030635 -17.818800
0.000000 0.000000 0.000000 0.000000 0.000000 -0.000000 -1.748740 89.971900 -3.274490 88.931300 -2.186470 12.605600 15.735700 0.000005 -0.000001 88.302900 76.538700 -88.386300 8.984550 -0.406207 -0.000000 19.145600 -0.789119 -0.033986 16.377300 -0.000001 -0.000001 2.125370 -2.520300 1.303370 6.456720 -0.000001 -0.000000 -5.167010 -0.952873 0.063721 12.994200 -0.242716 4.980390 -91.179300 6.346690 -79.451500 5.348090 -0.000007 -0.000001 -49.896500 40.960100 -34.499400 24.328600 0.000019 0.000005 6.292040 17.170200 -20.480300 22.291600 -0.000001 0.000005 8.737080 5.233470 1.865490 12.994500 -0.242716 -4.980390 89.394500 11.062300 -86.847500 -5.348130 -0.000001 -0.000004 -55.186300 30.474000 -25.751000 -24.328900 0.000322 -0.000009 3.594820 5.866260 -31.585700 -22.291500 -0.000108 -0.000004 19.393900 5.401780 -2.995320 -2.192480 -6.469440 -0.000000 -172.663000 -12.421400 -2.450510 39.081100 -0.000007 -0.000012 -0.252506 0.347819 35.979000 40.985400 -0.000006 -0.000013 -0.428766 5.448990 -70.397700 11.754300 -0.000000 0.000003 -0.000124 -0.001232 -16.624600 -2.192510 6.469440 -0.000001 175.270000 20.337000 179.300000 -39.081100 -0.002282 -0.040193 -0.147066 0.213392 35.168600 -40.985400 0.000008 0.000006 6.073040 12.160200 -72.039400 -11.754300 -0.000006 -0.000006 -0.002065 -0.029529 -17.773800
0.000000 0.000000 0.000000 0.000000 0.000000 -0.000000 -1.730040 89.977000 -3.290610 88.928700 -2.270840 12.573600 15.735700 0.000005 -0.000001 88.229600 76.543100 -88.321900 8.984550 -0.406207 -0.000000 19.135700 -0.823481 -0.046275 16.377300 -0.000001 -0.000001 2.194390 -2.539680 1.342480 6.456720 -0.000001 -0.000000 -5.137380 -0.906632 0.063717 12.994200 -0.242716 4.980390 -91.184700 6.365500 -79.434300 5.348090 -0.000007 -0.000001 -49.896200 40.922200 -34.411700 24.328600 0.000019 0.000005 6.302410 17.204700 -20.475000 22.291600 -0.000001 0.000005 8.754050 5.231290 1.922050 12.994500 -0.242716 -4.980390 89.383800 11.014500 -86.778000 -5.348130 -0.000001 -0.000004 -54.884700 29.543200 -25.998300 -24.328900 0.000322 -0.000009 4.097320 6.034510 -34.275200 -22.291500 -0.000108 -0.000004 20.050000 5.405430 -3.114270 -2.192480 -6.469440 -0.000000 -172.673000 -12.487900 -2.471970 39.081100 -0.000007 -0.000012 -0.248795 0.342886 35.964800 40.985400 -0.000006 -0.000013 -0.420456 5.420650 -70.389300 11.754300 -0.000000 0.000003 -0.000122 -0.001220 -16.624200 -2.192510 6.469440 -0.000001 175.298000 20.296800 179.240000 -39.081100 -0.002282 -0.040193 -0.143873 0.208911 35.162100 -40.985400 0.000008 0.000006 6.120590 12.158400 -72.022600 -11.754300 -0.000006 -0.000006 -0.002097 -0.029925 -17.790000
0.000000 0.000000 0.000000 0.000000 0.000000 -0.000000 -1.707020 89.986200 -3.311910 88.934000 -2.344340 12.563000 15.735700 0.000005 -0.000001 88.190000 76.538100 -88.290000 8.984550 -0.406207 -0.000000 19.145100 -0.842745 -0.058418 16.377300 -0.000001 -0.000001 2.243730 -2.576910 1.367430 6.456720 -0.000001 -0.000000 -5.147470 -0.921731 0.091552 12.994200 -0.242716 4.980390 -91.187700 6.371270 -79.417300 5.348090 -0.000007 -0.000001 -49.883900 40.896100 -34.402500 24.328600 0.000019 0.000005 6.247430 17.141900 -20.375900 22.291600 -0.000001 0.000005 8.716960 5.230900 1.932250 12.994500 -0.242716 -4.980390 89.362100 11.018900 -86.666200 -5.348130 -0.000001 -0.000004 -54.430600 28.559900 -26.326700 -24.328900 0.000322 -0.000009 4.851810 6.404810 -37.272900 -22.291500 -0.000108 -0.000004 20.568400 5.405840 -3.128680 -2.192480 -6.469440 -0.000000 -172.683000 -12.540400 -2.464890 39.081100 -0.000007 -0.000012 -0.251365 0.346922 35.926000 40.985400 -0.000006 -0.000013 -0.410167 5.408850 -70.364600 11.754300 -0.000000 0.000003 -0.000130 -0.001286 -16.626600 -2.192510 6.469440 -0.000001 175.309000 20.252300 179.211000 -39.081100 -0.002282 -0.040193 -0.139907 0.203429 35.142600 -40.985400 0.000008 0.000006 6.192770 12.151600 -72.007700 -11.754300 -0.000006 -0.000006 -0.002193 -0.031113 -17.838300
0.000000 0.000000 0.000000 0.000000 0.000000 -0.000000 -1.678320 89.986500 -3.326240 88.936300 -2.365680 12.530000 15.735700 0.000005 -0.000001 88.125300 76.542200 -88.224300 8.984550 -0.406207 -0.000000 19.136000 -0.872172 -0.051505 16.377300 -0.000001 -0.000001 2.250820 -2.607720 1.366790 6.456720 -0.000001 -0.000000 -5.130650 -0.941507 0.124504 12.994200 -0.242716 4.980390 -91.192400 6.386860 -79.402100 5.348090 -0.000007 -0.000001 -49.939200 40.809900 -34.352100 24.328600 0.000019 0.000005 6.246060 17.178600 -20.333000 22.291600 -0.000001 0.000005 8.774530 5.230570 1.940730 12.994500 -0.242716 -4.980390 89.333300 11.033500 -86.520500 -5.348130 -0.000001 -0.000004 -54.080800 27.346400 -26.657700 -24.328900 0.000322 -0.000009 5.734560 6.773540 -40.414900 -22.291500 -0.000108 -0.000004 21.080900 5.408120 -3.203350 -2.192480 -6.469440 -0.000000 -172.713000 -12.568800 -2.506550 39.081100 -0.000007 -0.000012 -0.247474 0.341453 35.933800 40.985400 -0.000006 -0.000013 -0.397264 5.375450 -70.365800 11.754300 -0.000000 0.000003 -0.000131 -0.001295 -16.626900 -2.192510 6.469440 -0.000001 175.285000 20.226700 179.168000 -39.081100 -0.002282 -0.040193 -0.149276 0.216854 35.128200 -40.985400 0.000008 0.000006 6.030080 12.235400 -71.946500 -11.754300 -0.000006 -0.000006 -0.001994 -0.028636 -17.737500
0.000000 0.000000 0.000000 0.000000 0.000000 -0.000000 -1.658350 89.994100 -3.344210 88.940300 -2.394580 12.505200 15.735700 0.000005 -0.000001 88.132800 76.539000 -88.230600 8.984550 -0.406207 -0.000000 19.142500 -0.868797 -0.049689 16.377300 -0.000001 -0.000001 2.247620 -2.629630 1.362610 6.456720 -0.000001 -0.000000 -5.117060 -0.967268 0.155710 12.994200 -0.242716 4.980390 -91.185100 6.359530 -79.421700 5.348090 -0.000007 -0.000001 -49.994700 40.728300 -34.334000 24.328600 0.000019 0.000005 6.244630 17.160600 -20.347700 22.291600 -0.000001 0.000005 8.831430 5.231650 1.912800 12.994500 -0.242716 -4.980390 89.304300 11.052500 -86.375700 -5.348130 -0.000001 -0.000004 -53.957300 25.796100 -26.937200 -24.328900 0.000322 -0.000009 6.671360 7.015900 -43.762100 -22.291500 -0.000108 -0.000004 21.410000 5.407740 -3.191620 -2.192480 -6.469440 -0.000000 -172.718000 -12.633200 -2.526040 39.081100 -0.000007 -0.000012 -0.252041 0.348133 35.904200 40.985400 -0.000006 -0.000013 -0.378322 5.398410 -70.338700 11.754300 -0.000000 0.000003 -0.000129 -0.001274 -16.626200 -2.192510 6.469440 -0.000001 175.302000 20.196100 179.126000 -39.081100 -0.002282 -0.040193 -0.144274 0.209888 35.109800 -40.985400 0.000008 0.000006 6.069100 12.234300 -71.927400 -11.754300 -0.000006 -0.000006 -0.002067 -0.029556 -17.774900
